# xmcd
#
# Track frame offsets:
#	150
#	21287
#	48380
#	64047
#	90075
#	106585
#	135162
#	147745
#	188122
#	202255
#	218935
#	241265
#	270315
#	288585
#	305482
#
# Disc length: 4345
#
# Revision: 2
# Processed by: cddbd v1.5.1PL0 Copyright (c) Steve Scherf et al.
# Submitted via: DiscPlay 4.0.3
# Normalized: r1:DSETVAR1,TDELIM( - )
#
DISCID=d610f70f
DTITLE=Various Artist - The Best of Slide Guitar
DYEAR=1900
DGENRE=
TTITLE0=Lil' Ed Williams Featuring Dave Weld and The Imperial Flames - Happily Endlessly (Take 1)
TTITLE1=John Primer - I'm A Blues Man
TTITLE2=John Littlejohn - Bloody Tears
TTITLE3=Eddie Taylor - Moon Is Rising
TTITLE4=J. B. Hutto - Dim Lights
TTITLE5=Muddy Waters - Long Distance Call
TTITLE6=Homesick James - Sad and Lonesome
TTITLE7=Johnny B. Moore - Blues Medley
TTITLE8=Hound Dog Taylor - Dust My Broom
TTITLE9=Louis Myers - That's All Right
TTITLE10=Honey Boy Edwards - Sweet Home Chicago
TTITLE11=Maynard Silva and The New Hawks - Hipshakin'
TTITLE12=Houston Stackhouse - Cryin' Won't Help Me
TTITLE13=Cub Koda and The House Rockers - Take Five
TTITLE14=Lil' Ed Williams Featuring Dave Weld and The Imperial Flames - Happily Endlessly (Take 2)
EXTD=
EXTT0=
EXTT1=
EXTT2=
EXTT3=
EXTT4=
EXTT5=
EXTT6=
EXTT7=
EXTT8=
EXTT9=
EXTT10=
EXTT11=
EXTT12=
EXTT13=
EXTT14=
PLAYORDER=
